<svg width="32" height="21" viewBox="0 0 32 21" fill="none" xmlns="http://www.w3.org/2000/svg">
<path d="M22.2587 3.76675L20.4122 0.568996C20.0965 0.022343 19.3074 0.0224252 18.9919 0.56916L15.7294 6.22208L13.1726 10.6499L15.7294 15.0777L17.4523 12.0957L18.2863 10.6499L19.7019 8.19733L26.9417 20.4219H30.9238C31.5633 20.4219 31.9567 19.7224 31.6246 19.176L22.2587 3.76675Z" fill="#927AF4"/>
<path d="M15.2278 15.9769H10.6875L8.13062 20.4048H12.6709L15.2278 15.9769Z" fill="url(#paint0_linear_2_200)"/>
<path d="M10.6848 15.9941L8.12798 20.4219H22.5314C23.1627 20.4219 23.5572 19.7385 23.2416 19.1918L21.395 15.9941L18.3114 10.6499L15.7546 6.22209L14.3362 3.76677L12.4896 0.568767C12.1739 0.0221551 11.3849 0.0221556 11.0693 0.568809L0.317139 19.1919C0.0015173 19.7386 0.39604 20.4219 1.02728 20.4219H4.72067L9.52985 12.0957L11.7794 8.19735L13.1978 10.6499L15.7546 15.0778L16.2813 15.9941H15.2251H10.6848Z" fill="#B7A7F8"/>
<defs>
<linearGradient id="paint0_linear_2_200" x1="22.0616" y1="0.427394" x2="10.5091" y2="20.1935" gradientUnits="userSpaceOnUse">
<stop stop-color="#58CAEF"/>
<stop offset="0.18" stop-color="#4EBEE8"/>
<stop offset="0.5" stop-color="#33A1D6"/>
<stop offset="0.92" stop-color="#0871B9"/>
<stop offset="1" stop-color="#0067B3"/>
</linearGradient>
</defs>
</svg>
